<mxfile host="app.diagrams.net" modified="2023-07-07T10:00:21.011Z" agent="Mozilla/5.0 (Windows NT 10.0; Win64; x64) AppleWebKit/537.36 (KHTML, like Gecko) Chrome/114.0.0.0 Safari/537.36 Edg/114.0.1823.58" version="21.6.1" etag="OBO_prWf0_oqus60t8Ah" type="github">
  <diagram name="Page-1" id="S-iMc0VKjefcV2-NNx7-">
    <mxGraphModel>
      <root>
        <mxCell id="0" />
        <mxCell id="1" parent="0" />
      </root>
    </mxGraphModel>
  </diagram>
</mxfile>
